:version 1.10
:name ASF
:units
  mass 1
  length 1
  angle deg
:documentation
  ASF file generated by Kaydara
:root
  axis xyz
  order  tx ty tz rx ry rz
  position 0 0 0
  orientation 0 0 0
:bonedata
  begin
    id 1
    name RightUpLegDummy
    direction -1 2.30186e-007 8.31532e-007
    length 4.04083
    axis 0 0 0 xyz
  end
  begin
    id 2
    name RightUpLeg
    direction -0.000919234 -0.999985 0.00544864
    length 17.4221
    axis -3.80308 -0.00076134 -0.0523649 xyz
    dof rx ry rz
  end
  begin
    id 3
    name RightLeg
    direction -0.000919271 -0.999984 -0.00555045
    length 17.1239
    axis 4.00314 0.0181274 -0.183583 xyz
    dof rx ry rz
  end
  begin
    id 4
    name RightFoot
    direction -2.57843e-005 -4.04509e-007 1
    length 6.72091
    axis 8.18909e-005 -0.122003 -0.403008 xyz
    dof rx ry rz
  end
  begin
    id 5
    name RightToes
    direction 0.00116825 -0.014069 0.9999
    length 3.85082
    axis 0.000514414 0.540638 -0.356797 xyz
    dof rx ry rz
  end
  begin
    id 6
    name SpineDummy
    direction 0.0168869 0.966876 -0.254689
    length 6.99894
    axis 0 0 0 xyz
  end
  begin
    id 7
    name Spine
    direction -0.0132008 0.999903 0.00446247
    length 11.1999
    axis -0.00148109 0.00725429 0.756411 xyz
    dof rx ry rz
  end
  begin
    id 8
    name Spine1
    direction 0 0 0
    length 0
    axis -0.000934958 0.0245693 1.46543 xyz
    dof rx ry rz
  end
  begin
    id 9
    name HEadDummy
    direction -0.0255732 0.999672 0.00128215
    length 3.43865
    axis -0.000934958 0.0245693 1.46543 xyz
  end
  begin
    id 10
    name HEad
    direction -0.0472656 0.980052 0.19304
    length 5.12695
    axis -0.000934954 0.0245693 1.46543 xyz
    dof rx ry rz
  end
  begin
    id 11
    name LeftShoulder1Dummy
    direction 0.953098 0.301717 -0.023914
    length 3.68488
    axis -0.000934958 0.0245693 1.46543 xyz
  end
  begin
    id 12
    name LeftShoulder1
    direction 0.962466 0.271167 0.0112566
    length 3.13809
    axis -0.000934958 0.0245693 1.46543 xyz
    dof rx ry rz
  end
  begin
    id 13
    name LeftArm
    direction 0.999943 0.00455037 -0.00961766
    length 11.3419
    axis -23.1648 0.685459 1.22814 xyz
    dof rx ry rz
  end
  begin
    id 14
    name LeftForeArm
    direction 0.999332 0.0131969 0.0340885
    length 8.70632
    axis -9.90633 0.618216 0.0826942 xyz
    dof rx ry rz
  end
  begin
    id 15
    name LeftHand
    direction 0.994373 -0.0366703 0.0993905
    length 5.32135
    axis 0.00675269 0.680415 0.445699 xyz
    dof rx ry rz
  end
  begin
    id 16
    name RightShoulderDummy
    direction -0.967298 0.252589 -0.0230903
    length 3.68488
    axis -0.000934958 0.0245693 1.46543 xyz
  end
  begin
    id 17
    name RightShoulder
    direction -0.975062 0.221602 0.0120823
    length 3.13809
    axis 0.216257 0.0246515 1.45863 xyz
    dof rx ry rz
  end
  begin
    id 18
    name RightArm
    direction -0.99886 -0.00851186 -0.0469687
    length 10.3947
    axis -23.196 0.23503 -0.532632 xyz
    dof rx ry rz
  end
  begin
    id 19
    name RightForeArm
    direction -0.99909 0.00114866 0.0426317
    length 8.68355
    axis -9.91764 -0.134943 0.610517 xyz
    dof rx ry rz
  end
  begin
    id 20
    name RightHand
    direction -0.992888 -0.0489538 0.10852
    length 5.28593
    axis -0.00275396 -0.197403 0.246414 xyz
    dof rx ry rz
  end
  begin
    id 21
    name LeftUpLegDummy
    direction 1 -2.30186e-007 -8.31532e-007
    length 4.04083
    axis 0 0 0 xyz
  end
  begin
    id 22
    name LeftUpLeg
    direction -0.000920097 -1 2.79241e-006
    length 17.4221
    axis -3.48782 0.00143434 -0.0532288 xyz
    dof rx ry rz
  end
  begin
    id 23
    name LeftLeg
    direction -0.000920097 -1 2.7912e-006
    length 17.1239
    axis 3.68162 -0.00806512 -0.0529896 xyz
    dof rx ry rz
  end
  begin
    id 24
    name LeftFoot
    direction -2.57845e-005 -3.987e-007 1
    length 6.72091
    axis 3.02372e-005 -0.00147829 -0.214229 xyz
    dof rx ry rz
  end
  begin
    id 25
    name LeftToes
    direction 0.00813577 -0.00488255 0.999955
    length 3.85048
    axis 3.89895e-005 -0.0014783 -0.214229 xyz
    dof rx ry rz
  end
:hierarchy
  begin
    root RightUpLegDummy SpineDummy LeftUpLegDummy
    RightUpLegDummy RightUpLeg
    RightUpLeg RightLeg
    RightLeg RightFoot
    RightFoot RightToes
    SpineDummy Spine
    Spine Spine1
    Spine1 HEadDummy LeftShoulder1Dummy RightShoulderDummy
    HEadDummy HEad
    LeftShoulder1Dummy LeftShoulder1
    LeftShoulder1 LeftArm
    LeftArm LeftForeArm
    LeftForeArm LeftHand
    RightShoulderDummy RightShoulder
    RightShoulder RightArm
    RightArm RightForeArm
    RightForeArm RightHand
    LeftUpLegDummy LeftUpLeg
    LeftUpLeg LeftLeg
    LeftLeg LeftFoot
    LeftFoot LeftToes
  end

:SAMPLES-PER-SECOND 30
:FULLY-SPECIFIED
:DEGREES
49
root  -44.2697 34.8249 36.581 -169.866 10.0857 -179.991
RightUpLeg  -9.94987 -13.9705 2.96083
RightLeg  5.55901 -1.15407 -0.0366767
RightFoot  3.71308 0.0142567 0.0533858
RightToes  -20.7056 -0.0873622 -0.185173
Spine  -2.90867 -1.38662 -0.11531
Spine1  -5.86512 -2.75996 0.470824
HEad  -94.4004 -60.5841 26.0471
LeftShoulder1  -1.94126e-019 -3.10601e-018 -2.51263e-017
LeftArm  -9.04478 24.5919 -80.968
LeftForeArm  33.8205 -20.7726 -3.49401
LeftHand  -0.26527 -1.02929 5.22904
RightShoulder  -4.96962e-017 0 -2.36833e-017
RightArm  -29.9607 -25.5201 77.8459
RightForeArm  61.3469 12.1733 1.44665
RightHand  -0.468703 0.206871 -9.78426
LeftUpLeg  -7.16174 4.34026 -0.85488
LeftLeg  4.99127 16.9917 0.38205
LeftFoot  3.22451 -0.0287882 1.11693
LeftToes  -19.0709 1.46665e-006 1.03344e-007
50
root  -44.2665 34.8259 36.5796 -169.864 10.2633 -179.943
RightUpLeg  -9.93449 -13.879 3.00146
RightLeg  5.50818 -1.07166 -0.0330369
RightFoot  3.74758 0.014204 0.0541383
RightToes  -20.7387 -0.0873622 -0.185173
Spine  -2.91991 -1.39545 -0.118749
Spine1  -5.88757 -2.77735 0.465041
HEad  -94.0295 -60.5199 25.6547
LeftShoulder1  -1.94126e-019 -3.10601e-018 -2.51263e-017
LeftArm  -9.21807 24.671 -81.0832
LeftForeArm  33.9428 -20.6401 -3.47319
LeftHand  -0.266627 -1.04005 5.22035
RightShoulder  -4.96962e-017 0 -2.36833e-017
RightArm  -29.8551 -25.5641 77.8083
RightForeArm  61.2182 12.2842 1.43472
RightHand  -0.518657 0.467844 -10.3601
LeftUpLeg  -7.16647 5.25241 -0.864369
LeftLeg  5.01806 16.3531 0.375608
LeftFoot  3.13278 -0.0245488 1.05103
LeftToes  -19.0472 1.46665e-006 1.03344e-007
51
root  -44.2765 34.8294 36.582 -169.861 10.4213 -179.966
RightUpLeg  -9.96972 -13.8053 2.9446
RightLeg  5.53902 -0.952534 -0.0297614
RightFoot  3.73793 0.0141747 0.0545575
RightToes  -20.6583 -0.0873622 -0.185173
Spine  -2.94433 -1.37559 -0.141956
Spine1  -5.93667 -2.73785 0.418844
HEad  -93.6015 -60.5085 25.2496
LeftShoulder1  -1.94126e-019 -3.10601e-018 -2.51263e-017
LeftArm  -8.96307 24.8105 -81.1725
LeftForeArm  33.6719 -20.4583 -3.4351
LeftHand  -0.269533 -0.937807 5.12721
RightShoulder  -4.96962e-017 0 -2.36833e-017
RightArm  -29.5448 -25.6478 77.7839
RightForeArm  60.7362 12.4517 1.41913
RightHand  -0.474737 0.249991 -9.8375
LeftUpLeg  -7.10031 4.372 -0.868691
LeftLeg  4.94139 17.271 0.373342
LeftFoot  3.1908 -0.0292284 1.12377
LeftToes  -18.8757 1.46665e-006 1.03344e-007
52
root  -44.2797 34.8342 36.5836 -169.856 10.5791 -179.945
RightUpLeg  -9.93663 -13.6007 2.9447
RightLeg  5.44032 -0.997861 -0.0295141
RightFoot  3.82108 0.0141637 0.0547136
RightToes  -20.6789 -0.0873622 -0.185173
Spine  -2.93391 -1.37767 -0.14112
Spine1  -5.91734 -2.73616 0.423252
HEad  -93.375 -60.3576 24.9779
LeftShoulder1  -1.94126e-019 -3.10601e-018 -2.51263e-017
LeftArm  -9.54188 24.8483 -81.4087
LeftForeArm  34.0358 -19.9598 -3.35778
LeftHand  -0.272653 -1.05749 5.14033
RightShoulder  -4.96962e-017 0 -2.36833e-017
RightArm  -29.4937 -25.4663 77.7961
RightForeArm  60.5599 12.6026 1.4029
RightHand  -0.456143 0.217552 -9.50663
LeftUpLeg  -7.01568 4.48118 -0.869156
LeftLeg  4.77144 17.3218 0.323814
LeftFoot  3.2994 -0.0316695 1.16171
LeftToes  -19.1385 1.46665e-006 1.03344e-007
53
root  -44.2767 34.8356 36.5789 -169.851 10.7478 -179.92
RightUpLeg  -9.89699 -13.5552 2.96278
RightLeg  5.36082 -0.879335 -0.0246725
RightFoot  3.84977 0.014161 0.0547524
RightToes  -20.5944 -0.0873622 -0.185173
Spine  -2.93519 -1.35671 -0.155538
Spine1  -5.92088 -2.69028 0.397189
HEad  -93.0463 -60.2833 24.6849
LeftShoulder1  -1.94126e-019 -3.10601e-018 -2.51263e-017
LeftArm  -9.71036 25.0237 -81.5366
LeftForeArm  34.0516 -19.6574 -3.30552
LeftHand  -0.276171 -1.031 5.08114
RightShoulder  -4.96962e-017 0 -2.36833e-017
RightArm  -29.1732 -25.3811 77.867
RightForeArm  60.2736 12.7945 1.38095
RightHand  -0.457503 0.230729 -9.51364
LeftUpLeg  -6.98362 5.48156 -0.904685
LeftLeg  4.74476 16.599 0.303044
LeftFoot  3.21248 -0.02716 1.09162
LeftToes  -18.9007 1.46665e-006 1.03344e-007
54
root  -44.2875 34.8418 36.5816 -169.851 10.768 -179.92
RightUpLeg  -9.86389 -13.4668 2.94513
RightLeg  5.26692 -0.967097 -0.0256586
RightFoot  3.93762 0.0141667 0.0546709
RightToes  -20.6682 -0.0873622 -0.185173
Spine  -2.93255 -1.33993 -0.173797
Spine1  -5.91681 -2.65366 0.362834
HEad  -92.8666 -60.2743 24.5103
LeftShoulder1  -1.94126e-019 -3.10601e-018 -2.51263e-017
LeftArm  -9.80337 25.1327 -81.6771
LeftForeArm  34.1072 -19.2519 -3.23236
LeftHand  -0.278517 -1.01489 5.09107
RightShoulder  -4.96962e-017 0 -2.36833e-017
RightArm  -28.7286 -25.3345 77.9585
RightForeArm  59.841 13.0538 1.34975
RightHand  -0.471866 0.302203 -9.69346
LeftUpLeg  -6.90353 4.51557 -0.87557
LeftLeg  4.58602 17.4801 0.271003
LeftFoot  3.37408 -0.033955 1.19724
LeftToes  -19.1467 1.46665e-006 1.03344e-007
55
root  -44.2807 34.842 36.5823 -169.862 10.8072 -179.878
RightUpLeg  -9.80342 -13.452 2.99255
RightLeg  5.17879 -0.940468 -0.0278553
RightFoot  3.9728 0.0141811 0.0544661
RightToes  -20.6506 -0.0873622 -0.185173
Spine  -2.91775 -1.31701 -0.197662
Spine1  -5.88839 -2.60331 0.31691
HEad  -92.6638 -60.1959 24.396
LeftShoulder1  -1.94126e-019 -3.10601e-018 -2.51263e-017
LeftArm  -9.80672 25.2489 -81.7011
LeftForeArm  34.0056 -18.9429 -3.18475
LeftHand  -0.279921 -1.02024 5.13217
RightShoulder  -4.96962e-017 0 -2.36833e-017
RightArm  -28.3879 -25.2072 78.1195
RightForeArm  59.7964 13.2967 1.31487
RightHand  -0.607507 1.22809 -10.7845
LeftUpLeg  -6.91304 5.57925 -0.875872
LeftLeg  4.61416 16.5692 0.265274
LeftFoot  3.25375 -0.0279627 1.1041
LeftToes  -18.8646 1.46665e-006 1.03344e-007
56
root  -44.2832 34.846 36.5857 -169.866 10.756 -179.865
RightUpLeg  -9.77407 -13.5113 3.01092
RightLeg  5.11914 -0.940684 -0.0204521
RightFoot  4.03664 0.0142042 0.0541351
RightToes  -20.7812 -0.0873622 -0.185173
Spine  -2.89882 -1.30014 -0.223132
Spine1  -5.85168 -2.56587 0.268263
HEad  -92.5012 -60.0518 24.2886
LeftShoulder1  -1.94126e-019 -3.10601e-018 -2.51263e-017
LeftArm  -9.994 25.2878 -81.7484
LeftForeArm  34.0323 -18.5258 -3.11887
LeftHand  -0.279981 -1.02519 5.19642
RightShoulder  -4.96962e-017 0 -2.36833e-017
RightArm  -27.842 -25.0967 78.2764
RightForeArm  59.1671 13.5483 1.28619
RightHand  -0.469161 0.38572 -9.50641
LeftUpLeg  -6.8894 5.54928 -0.860013
LeftLeg  4.55981 16.5468 0.249453
LeftFoot  3.28308 -0.028507 1.11256
LeftToes  -18.8683 1.46665e-006 1.03344e-007
57
root  -44.2857 34.8495 36.5935 -169.88 10.6635 -179.87
RightUpLeg  -9.79783 -13.7333 3.03317
RightLeg  5.10035 -0.896593 -0.0211218
RightFoot  4.14116 0.0142364 0.0536749
RightToes  -21.1462 -0.0873622 -0.185173
Spine  -2.88786 -1.26 -0.252221
Spine1  -5.83054 -2.48331 0.212455
HEad  -92.3322 -59.9809 24.1624
LeftShoulder1  -1.94126e-019 -3.10601e-018 -2.51263e-017
LeftArm  -10.2324 25.3072 -81.7796
LeftForeArm  34.2769 -18.0841 -3.04568
LeftHand  -0.279665 -1.06292 5.16119
RightShoulder  -4.96962e-017 0 -2.36833e-017
RightArm  -27.514 -25.0263 78.4425
RightForeArm  58.7381 13.7557 1.2601
RightHand  -0.471461 0.384363 -9.55475
LeftUpLeg  -6.87303 5.48716 -0.858348
LeftLeg  4.49897 16.5188 0.231747
LeftFoot  3.34874 -0.0297247 1.13148
LeftToes  -18.9814 1.46665e-006 1.03344e-007
58
root  -44.2919 34.8521 36.5926 -169.852 10.4602 -179.878
RightUpLeg  -9.81885 -13.9251 3.03961
RightLeg  5.11573 -0.902869 -0.0215176
RightFoot  4.11564 0.0142779 0.0530826
RightToes  -21.1598 -0.0873622 -0.185173
Spine  -2.88173 -1.2581 -0.287642
Spine1  -5.81923 -2.4769 0.14401
HEad  -91.7949 -59.7694 23.7997
LeftShoulder1  -1.94126e-019 -3.10601e-018 -2.51263e-017
LeftArm  -10.3939 25.3417 -81.7395
LeftForeArm  34.2438 -17.7456 -2.99186
LeftHand  -0.27658 -1.04248 5.24472
RightShoulder  -4.96962e-017 0 -2.36833e-017
RightArm  -27.1717 -24.9183 78.6237
RightForeArm  58.5423 13.9232 1.23727
RightHand  -0.5031 0.537718 -9.93998
LeftUpLeg  -6.85956 5.57488 -0.862392
LeftLeg  4.33523 16.2451 0.18221
LeftFoot  3.42923 -0.0301714 1.13843
LeftToes  -18.9346 1.46665e-006 1.03344e-007
59
root  -44.2942 34.8457 36.5968 -169.84 10.3249 -179.85
RightUpLeg  -9.88911 -13.9397 3.07213
RightLeg  5.25877 -1.00274 -0.0264993
RightFoot  3.98812 0.0143288 0.0523551
RightToes  -21.2008 -0.0873622 -0.185173
Spine  -2.89382 -1.18431 -0.314709
Spine1  -5.84442 -2.32781 0.0868718
HEad  -90.2255 -59.2778 22.5169
LeftShoulder1  -1.94126e-019 -3.10601e-018 -2.51263e-017
LeftArm  -9.99967 25.4395 -81.5899
LeftForeArm  34.0117 -17.6861 -2.97679
LeftHand  -0.277319 -0.937699 5.21157
RightShoulder  -4.96962e-017 0 -2.36833e-017
RightArm  -26.8978 -24.9085 78.7547
RightForeArm  58.1125 14.0315 1.22681
RightHand  -0.458085 0.319933 -9.38488
LeftUpLeg  -6.87136 5.62718 -0.828365
LeftLeg  4.30488 16.0674 0.171866
LeftFoot  3.40337 -0.0289723 1.11979
LeftToes  -19.0023 1.46665e-006 1.03344e-007
60
root  -44.3071 34.8434 36.6103 -169.864 10.2032 -179.891
RightUpLeg  -10.0722 -13.9296 3.01513
RightLeg  5.64014 -1.1106 -0.0368245
RightFoot  3.79628 0.0143894 0.0514896
RightToes  -21.3569 -0.0873622 -0.185173
Spine  -2.88912 -1.13318 -0.339827
Spine1  -5.83828 -2.22168 0.0313337
HEad  -86.5715 -57.4848 19.4753
LeftShoulder1  -1.94126e-019 -3.10601e-018 -2.51263e-017
LeftArm  -10.0151 25.3924 -81.5131
LeftForeArm  33.7595 -17.2744 -2.90711
LeftHand  -0.282391 -0.906276 5.32876
RightShoulder  -4.96962e-017 0 -2.36833e-017
RightArm  -26.8266 -24.7355 78.867
RightForeArm  58.1097 14.0454 1.22483
RightHand  -0.45734 0.32134 -9.36755
LeftUpLeg  -6.91211 4.55012 -0.823286
LeftLeg  4.38502 16.9076 0.203929
LeftFoot  3.43811 -0.0331548 1.1848
LeftToes  -19.1327 1.46665e-006 1.03344e-007
61
root  -44.3035 34.8429 36.5993 -169.913 10.2694 -179.959
RightUpLeg  -10.2254 -13.6788 2.92099
RightLeg  6.06928 -1.29846 -0.0529367
RightFoot  3.56654 0.0144598 0.0504829
RightToes  -21.2819 -0.0873622 -0.185173
Spine  -2.8879 -1.0555 -0.319349
Spine1  -5.83958 -2.06079 0.0689604
HEad  -81.3198 -53.4723 15.1976
LeftShoulder1  -1.94126e-019 -3.10601e-018 -2.51263e-017
LeftArm  -10.8839 25.3459 -81.6493
LeftForeArm  34.1223 -16.4692 -2.76725
LeftHand  -0.284792 -0.964152 5.32932
RightShoulder  -4.96962e-017 0 -2.36833e-017
RightArm  -26.9909 -24.5168 78.8975
RightForeArm  58.1525 14.0283 1.22694
RightHand  -0.45647 0.22977 -9.29703
LeftUpLeg  -6.97315 5.51569 -0.934619
LeftLeg  4.60273 16.0996 0.254773
LeftFoot  3.3206 -0.0276575 1.09935
LeftToes  -18.8656 1.46665e-006 1.03344e-007
62
root  -44.3086 34.8307 36.5886 -169.874 10.0813 -179.893
RightUpLeg  -10.3656 -13.7577 2.99119
RightLeg  6.35834 -1.40902 -0.0646391
RightFoot  3.3892 0.0145822 0.0487342
RightToes  -21.3248 -0.0873622 -0.185173
Spine  -2.90988 -1.04331 -0.249926
Spine1  -5.88638 -2.0272 0.201963
HEad  -75.5911 -47.0728 11.3269
LeftShoulder1  -1.94126e-019 -3.10601e-018 -2.51263e-017
LeftArm  -11.5164 25.183 -81.7876
LeftForeArm  34.3961 -15.8011 -2.69447
LeftHand  -0.308011 -1.13808 5.61666
RightShoulder  -4.96962e-017 0 -2.36833e-017
RightArm  -27.1569 -24.3848 78.8979
RightForeArm  58.0305 14.0517 1.22491
RightHand  -0.450056 0.184318 -9.42593
LeftUpLeg  -7.02492 5.43112 -0.867794
LeftLeg  4.65581 15.9997 0.267855
LeftFoot  3.21272 -0.0252499 1.06193
LeftToes  -18.9448 1.46665e-006 1.03344e-007
63
root  -44.3096 34.8277 36.5657 -169.902 10.0544 -179.92
RightUpLeg  -10.3792 -13.6802 2.94083
RightLeg  6.52308 -1.51935 -0.0741534
RightFoot  3.27643 0.0147096 0.0469138
RightToes  -21.2688 -0.0873622 -0.185173
Spine  -2.91331 -0.957042 -0.200082
Spine1  -5.89575 -1.84979 0.295182
HEad  -70.7806 -39.2734 8.424
LeftShoulder1  -1.94126e-019 -3.10601e-018 -2.51263e-017
LeftArm  -11.853 25.0924 -81.874
LeftForeArm  34.4894 -15.2615 -2.61059
LeftHand  -0.30985 -1.17162 5.62344
RightShoulder  -4.96962e-017 0 -2.36833e-017
RightArm  -27.2112 -24.382 78.9095
RightForeArm  57.6576 14.1791 1.21111
RightHand  -0.446531 0.111805 -9.47667
LeftUpLeg  -7.07778 5.15097 -0.887261
LeftLeg  4.90715 16.233 0.341917
LeftFoot  3.0796 -0.0235527 1.03774
LeftToes  -18.78 1.46665e-006 1.03344e-007
